<?xml version="1.0" encoding="iso-8859-1"?>
<!-- Generator: Adobe Illustrator 19.0.0, SVG Export Plug-In . SVG Version: 6.00 Build 0)  -->
<svg version="1.1" id="Capa_1" xmlns="http://www.w3.org/2000/svg" xmlns:xlink="http://www.w3.org/1999/xlink" x="0px" y="0px"
	 viewBox="0 0 511.999 511.999" style="enable-background:new 0 0 511.999 511.999;" xml:space="preserve">
<g>
	<path style="fill:#FF8095;" d="M314.921,63.511c0.024-0.295,0.055-0.587,0.078-0.882c1.139-14.244-13.092-25.114-26.035-20.585
		c0.882,0.3,1.76,0.671,2.629,1.118C302.969,49.007,310.293,56.908,314.921,63.511z"/>
	<path style="fill:#FF8095;" d="M286.574,43.063c0.789-0.403,1.588-0.737,2.391-1.018c-13.072-4.446-27.035,6.881-25.817,21.314
		c0,0.003,0.001,0.006,0.001,0.009C267.806,56.762,275.167,48.885,286.574,43.063z"/>
	<path style="fill:#FF8095;" d="M384.597,465.073l1.42,0.36c41.953,10.488,91.955-6.529,115.941-42.503
		c-51.841-38.884-89.245-100.933-106.292-163.453l-17.897-65.619c-9.318-34.174-46.362-57.88-81.776-57.88
		c11.356-23.373,16.834-47.19,18.929-72.466c-4.628-6.604-11.952-14.505-23.328-20.349c-0.869-0.447-1.747-0.818-2.629-1.118
		c-0.803,0.281-1.602,0.615-2.391,1.018c-11.408,5.822-18.768,13.699-23.425,20.306c2.158,24.956,6.686,47.593,18.846,72.609
		c-35.414,0-72.458,23.706-81.776,57.88l-17.897,65.619c-14.168,51.96-42.397,103.597-81.289,141.878
		c-14.965,14.73-12.051,39.792,5.931,50.635c25.103,15.137,56.867,20.478,85.008,13.442l1.42-0.36
		c-0.037,0.06-0.074,0.121-0.11,0.181c-5.452,8.94-0.642,20.607,9.555,22.991c28.402,6.644,57.223,10.873,86.16,12.702
		c36.034-2.279,71.89-8.278,106.982-18.028C392.076,477.071,388.277,471.112,384.597,465.073z"/>
</g>
<path d="M335.985,444.926c-5.519,0-9.998,4.479-9.998,9.998s4.479,9.998,9.998,9.998s9.998-4.479,9.998-9.998
	S341.505,444.926,335.985,444.926z"/>
<path d="M124.584,191.227l-17.897,65.619C89.02,321.635,51.608,379.254,4.041,414.931c-4.245,3.184-5.264,9.13-2.32,13.546
	c22.112,33.164,64.393,52.082,105.443,49.82c-1.302,2.494-1.506,5.438-0.514,8.107c1.117,3.004,3.606,5.291,6.696,6.149
	c46.662,12.965,94.657,19.447,142.653,19.447s95.991-6.482,142.653-19.447c3.088-0.858,5.579-3.145,6.696-6.149
	c0.991-2.668,0.788-5.611-0.513-8.105c40.685,2.237,83.143-16.377,105.442-49.823c2.944-4.415,1.926-10.361-2.32-13.546
	c-47.566-35.677-84.979-93.296-102.646-158.085l-17.896-65.619c-9.167-33.619-41.66-58.455-76.613-64.052
	c7.718-19.386,12.272-39.99,14.164-63.747c0.861-10.767-4.27-21.244-13.391-27.345c-1.791-1.198-3.662-2.177-5.584-2.954V9.998
	c0-5.521-4.476-9.998-9.998-9.998c-5.522,0-9.998,4.477-9.998,9.998v22.498c-8.04,2.713-20.934,11.426-29.995,23.677
	c-9.159-12.38-22.115-21.025-29.995-23.645V9.998c0-5.521-4.476-9.998-9.998-9.998s-9.998,4.477-9.998,9.998V33.29
	c-1.798,0.75-3.547,1.686-5.227,2.81c-9.315,6.233-14.521,17.001-13.583,28.12c0.458,5.3,1.033,10.581,1.709,15.697
	c2.158,16.315,6.29,32.152,12.301,47.254C166.241,132.767,133.748,157.615,124.584,191.227z M23.933,424.751
	c47.282-38.552,84.213-97.246,102.045-162.645l17.897-65.619c7.424-27.226,36.988-48.772,68.333-50.402
	c4.017,3.508,8.454,6.524,13.179,8.98c-1.526,3.177-3.15,6.32-4.832,9.551c-6.578,12.645-14.033,26.977-16.737,48.265
	c-10.987,86.41-40.362,172.669-82.824,243.439C85.845,464.022,46.161,450.837,23.933,424.751z M131.917,476.77
	c47.344-75.207,79.903-168.288,91.738-261.365c2.255-17.749,8.271-29.314,14.641-41.559c2.067-3.973,4.177-8.032,6.165-12.33
	c7.616,1.322,15.459,1.322,23.073,0c2.01,4.344,4.137,8.426,6.22,12.422c6.34,12.166,12.33,23.658,14.591,41.469
	c11.803,92.831,44.267,185.967,91.737,261.364C298.621,497.078,213.378,497.078,131.917,476.77z M368.123,196.488l17.896,65.619
	c17.832,65.398,54.764,124.092,102.046,162.645c-22.233,26.093-61.935,39.281-97.061,31.57
	c-42.46-70.763-71.837-157.026-82.824-243.438c-2.712-21.357-10.14-35.613-16.695-48.189c-1.692-3.245-3.33-6.398-4.869-9.601
	c4.735-2.449,9.156-5.451,13.215-9.018C331.161,147.723,360.702,169.273,368.123,196.488z M247.056,80.46
	c0.034,0.068,0.075,0.129,0.11,0.196c3.773,7.151,14.13,7.095,17.775-0.197c1.37-2.02,6.802-18.601,26.175-28.488
	c4.222-2.153,7.939-0.203,9.341,0.734c3.153,2.108,4.863,5.52,4.574,9.131c-2.069,25.975-7.578,47.692-17.283,68.18
	c-5.031,4.707-10.87,8.171-17.404,10.275c-9.253,2.986-19.448,2.985-28.694,0.003c-6.538-2.117-12.386-5.562-17.404-10.253
	c-7.758-16.393-13.115-34.59-15.515-52.742c-0.637-4.817-1.179-9.797-1.609-14.779c-0.389-4.606,2.214-8.083,4.779-9.799
	c1.692-1.133,5.129-2.726,9.134-0.664C240.304,61.955,245.722,78.49,247.056,80.46z"/>
<path d="M295.522,450.36c-13.098,1.092-26.395,1.646-39.522,1.646c-25.211,0-50.563-2.033-75.351-6.041
	c-5.449-0.873-10.584,2.823-11.466,8.274c-0.882,5.451,2.823,10.585,8.274,11.467c25.841,4.178,52.266,6.297,78.543,6.297
	c13.68,0,27.536-0.577,41.183-1.714c5.502-0.459,9.592-5.292,9.133-10.794C305.857,453.991,301.019,449.913,295.522,450.36z"/>
<g>
</g>
<g>
</g>
<g>
</g>
<g>
</g>
<g>
</g>
<g>
</g>
<g>
</g>
<g>
</g>
<g>
</g>
<g>
</g>
<g>
</g>
<g>
</g>
<g>
</g>
<g>
</g>
<g>
</g>
</svg>
