<?xml version="1.0" encoding="iso-8859-1"?>
<!-- Generator: Adobe Illustrator 21.0.0, SVG Export Plug-In . SVG Version: 6.00 Build 0)  -->
<svg version="1.1" id="Layer_1" xmlns="http://www.w3.org/2000/svg" xmlns:xlink="http://www.w3.org/1999/xlink" x="0px" y="0px"
	 viewBox="0 0 32 32" style="enable-background:new 0 0 32 32;" xml:space="preserve">
<g id="Clown">
	<g>
		<rect style="fill:none;" width="32" height="32"/>
	</g>
	<g>
		<path style="fill:#43BFBF;" d="M26,16c-3.309,0-6-2.691-6-6c0-2.558,1.664-4.831,4.008-5.664
			c-0.064-0.817,0.131-1.685,0.568-2.407C25.305,0.721,26.586,0,28,0c2.205,0,4,1.794,4,4c0,0.984-0.375,1.931-1.018,2.65
			C31.645,7.637,32,8.795,32,10C32,13.309,29.309,16,26,16z"/>
	</g>
	<g>
		<path style="fill:#36D9D9;" d="M0,10c0-1.205,0.355-2.363,1.018-3.35C0.375,5.931,0,4.984,0,4c0-2.206,1.795-4,4-4
			c1.414,0,2.695,0.721,3.424,1.929c0.438,0.723,0.633,1.59,0.568,2.407C10.336,5.169,12,7.442,12,10c0,3.309-2.691,6-6,6
			S0,13.309,0,10z"/>
	</g>
	<g>
		<g>
			<path style="fill:#FFDFB3;" d="M16,32C9.383,32,4,26.617,4,20v-4C4,9.383,9.383,4,16,4s12,5.383,12,12v4
				C28,26.617,22.617,32,16,32z"/>
		</g>
		<path style="fill:#FFCC99;" d="M28,20v-4c0-6.617-5.383-12-12-12v28C22.617,32,28,26.617,28,20z"/>
		<g>
			<path style="fill:#F26C9A;" d="M16,20c-2.205,0-4-1.794-4-4s1.795-4,4-4s4,1.794,4,4S18.205,20,16,20z"/>
		</g>
		<path style="fill:#D95782;" d="M20,16c0-2.206-1.795-4-4-4v8C18.205,20,20,18.206,20,16z"/>
		<path style="fill:#F26C9A;" d="M16,28c-2.668,0-5.178-1.041-7.068-2.932c-1.172-1.172-1.172-3.07,0-4.242
			c1.133-1.133,3.109-1.133,4.242,0c1.418,1.418,4.234,1.418,5.652,0c1.133-1.133,3.109-1.133,4.242,0
			c1.172,1.172,1.172,3.07,0,4.242C21.178,26.959,18.668,28,16,28z"/>
		<path style="fill:#D95782;" d="M23.068,25.068c1.172-1.172,1.172-3.07,0-4.242c-1.133-1.133-3.109-1.133-4.242,0
			C18.117,21.535,17.059,21.89,16,21.89V28C18.668,28,21.178,26.959,23.068,25.068z"/>
		<path style="fill:#A6673A;" d="M10.346,22.24c-0.391,0.391-0.391,1.023,0,1.414c3.027,3.025,8.281,3.025,11.309,0
			c0.391-0.391,0.391-1.023,0-1.414c-0.379-0.377-1.035-0.377-1.414,0c-2.16,2.162-6.32,2.162-8.48,0
			C11.367,21.849,10.739,21.849,10.346,22.24z"/>
		<path style="fill:#99522E;" d="M21.654,23.654c0.391-0.391,0.391-1.023,0-1.414c-0.379-0.377-1.035-0.377-1.414,0
			c-1.08,1.081-2.66,1.622-4.24,1.622v2.062C18.07,25.923,20.141,25.167,21.654,23.654z"/>
	</g>
	<circle style="fill:#736056;" cx="11" cy="13" r="1"/>
	<circle style="fill:#665247;" cx="21" cy="13" r="1"/>
	<circle style="fill:#D7EBFF;" cx="15" cy="15" r="1"/>
</g>
<g id="Layer_1_1_">
</g>
</svg>
